HIERARCHY
ROOT joint_Root
{
	OFFSET 0.0 0.0 0.0
	CHANNELS 6 Xposition Yposition Zposition Zrotation Xrotation Yrotation 
	JOINT Hips
	{
		OFFSET -17.1583 93.1646 452.98
		CHANNELS 6 Xposition Yposition Zposition Zrotation Xrotation Yrotation 
		JOINT Spine
		{
			OFFSET 15.7357 0.0 0.0
			CHANNELS 6 Xposition Yposition Zposition Zrotation Xrotation Yrotation 
			JOINT Chest
			{
				OFFSET 8.98455 -0.406207 0.0
				CHANNELS 6 Xposition Yposition Zposition Zrotation Xrotation Yrotation 
				JOINT Neck
				{
					OFFSET 16.3773 0.0 0.0
					CHANNELS 6 Xposition Yposition Zposition Zrotation Xrotation Yrotation 
					JOINT Head
					{
						OFFSET 6.45672 0.0 0.0
						CHANNELS 6 Xposition Yposition Zposition Zrotation Xrotation Yrotation 
						End Site
						{
							OFFSET 0.0 0.0 0.0
						}
					}
				}
				JOINT Shoulder_L
				{
					OFFSET 12.9942 -0.242716 4.98039
					CHANNELS 6 Xposition Yposition Zposition Zrotation Xrotation Yrotation 
					JOINT UpperArm_L
					{
						OFFSET 5.34809 0.0 0.0
						CHANNELS 6 Xposition Yposition Zposition Zrotation Xrotation Yrotation 
						JOINT LowerArm_L
						{
							OFFSET 24.3286 1.87007e-05 0.0
							CHANNELS 6 Xposition Yposition Zposition Zrotation Xrotation Yrotation 
							JOINT Hand_L
							{
								OFFSET 22.2916 0.0 0.0
								CHANNELS 6 Xposition Yposition Zposition Zrotation Xrotation Yrotation 
								End Site
								{
									OFFSET 0.0 0.0 0.0
								}
							}
						}
					}
				}
				JOINT Shoulder_R
				{
					OFFSET 12.9945 -0.242716 -4.98039
					CHANNELS 6 Xposition Yposition Zposition Zrotation Xrotation Yrotation 
					JOINT UpperArm_R
					{
						OFFSET -5.34813 0.0 0.0
						CHANNELS 6 Xposition Yposition Zposition Zrotation Xrotation Yrotation 
						JOINT LowerArm_R
						{
							OFFSET -24.3289 0.000322201 0.0
							CHANNELS 6 Xposition Yposition Zposition Zrotation Xrotation Yrotation 
							JOINT Hand_R
							{
								OFFSET -22.2915 -0.000108084 0.0
								CHANNELS 6 Xposition Yposition Zposition Zrotation Xrotation Yrotation 
								End Site
								{
									OFFSET 0.0 0.0 0.0
								}
							}
						}
					}
				}
			}
		}
		JOINT UpperLeg_L
		{
			OFFSET -2.19248 -6.46944 0.0
			CHANNELS 6 Xposition Yposition Zposition Zrotation Xrotation Yrotation 
			JOINT LowerLeg_L
			{
				OFFSET 39.0811 0.0 -1.23785e-05
				CHANNELS 6 Xposition Yposition Zposition Zrotation Xrotation Yrotation 
				JOINT Foot_L
				{
					OFFSET 40.9854 0.0 -1.26872e-05
					CHANNELS 6 Xposition Yposition Zposition Zrotation Xrotation Yrotation 
					JOINT Toes_L
					{
						OFFSET 11.7543 0.0 0.0
						CHANNELS 6 Xposition Yposition Zposition Zrotation Xrotation Yrotation 
						End Site
						{
							OFFSET 0.0 0.0 0.0
						}
					}
				}
			}
		}
		JOINT UpperLeg_R
		{
			OFFSET -2.19251 6.46944 0.0
			CHANNELS 6 Xposition Yposition Zposition Zrotation Xrotation Yrotation 
			JOINT LowerLeg_R
			{
				OFFSET -39.0811 -0.00228153 -0.0401928
				CHANNELS 6 Xposition Yposition Zposition Zrotation Xrotation Yrotation 
				JOINT Foot_R
				{
					OFFSET -40.9854 0.0 0.0
					CHANNELS 6 Xposition Yposition Zposition Zrotation Xrotation Yrotation 
					JOINT Toes_R
					{
						OFFSET -11.7543 0.0 0.0
						CHANNELS 6 Xposition Yposition Zposition Zrotation Xrotation Yrotation 
						End Site
						{
							OFFSET 0.0 0.0 0.0
						}
					}
				}
			}
		}
	}
}
MOTION
Frames:	4
Frame Time:	0.0333333
0.000000 0.000000 0.000000 0.000000 0.000000 -0.000000 -3.813400 91.870700 -0.825658 83.041000 -3.697700 4.416920 15.735700 0.000005 -0.000001 58.829300 87.604200 -55.459600 8.984550 -0.406207 -0.000000 -3.576530 -2.811970 6.654860 16.377300 -0.000001 -0.000001 14.532700 2.564130 5.655870 6.456720 -0.000001 -0.000000 8.111720 5.249130 14.839700 12.994200 -0.242716 4.980390 -91.463300 4.077880 -70.241300 5.348090 -0.000007 -0.000001 -79.044700 -5.087120 -6.923540 24.328600 0.000019 0.000005 46.178400 -45.745300 -124.504000 22.291600 -0.000001 0.000005 50.040300 4.889610 9.584490 12.994500 -0.242716 -4.980390 87.350500 7.109640 -69.499700 -5.348130 -0.000001 -0.000004 -67.029900 3.518040 -9.463470 -24.328900 0.000322 -0.000009 20.492700 -24.139000 -137.575000 -22.291500 -0.000108 -0.000004 57.605800 5.657290 -15.758000 -2.192480 -6.469440 -0.000000 -170.937000 1.153550 -3.120640 39.081100 -0.000007 -0.000012 0.418558 -0.755126 29.000200 40.985400 -0.000006 -0.000013 -0.182832 4.578540 -77.037800 11.754300 -0.000000 0.000003 0.000790 0.153059 -10.369400 -2.192510 6.469440 -0.000001 -168.966000 4.836580 -176.360000 -39.081100 -0.002282 -0.040193 0.114544 -0.392687 15.813100 -40.985400 0.000008 0.000006 5.510200 3.094860 -70.933500 -11.754300 -0.000006 -0.000006 -0.010945 0.278239 -5.267290
0.000000 0.000000 0.000000 0.000000 0.000000 -0.000000 -3.801500 91.879200 -0.794953 83.059700 -3.606180 4.397790 15.735700 0.000005 -0.000001 59.199300 87.615400 -55.856600 8.984550 -0.406207 -0.000000 -3.581790 -2.771470 6.601980 16.377300 -0.000001 -0.000001 14.597300 2.543730 5.645140 6.456720 -0.000001 -0.000000 7.982720 5.135020 14.780200 12.994200 -0.242716 4.980390 -91.460900 4.059200 -70.186600 5.348090 -0.000007 -0.000001 -79.080700 -5.238790 -6.950460 24.328600 0.000019 0.000005 46.117300 -45.692000 -124.536000 22.291600 -0.000001 0.000005 49.925600 4.875030 9.872160 12.994500 -0.242716 -4.980390 87.335700 7.129980 -69.448300 -5.348130 -0.000001 -0.000004 -67.089900 2.971390 -9.335320 -24.328900 0.000322 -0.000009 20.416900 -23.999400 -137.535000 -22.291500 -0.000108 -0.000004 57.688500 5.655210 -15.535200 -2.192480 -6.469440 -0.000000 -170.965000 1.231160 -3.107390 39.081100 -0.000007 -0.000012 0.416407 -0.753324 28.933100 40.985400 -0.000006 -0.000013 -0.176189 4.588720 -77.034200 11.754300 -0.000000 0.000003 0.000699 0.154887 -10.295200 -2.192510 6.469440 -0.000001 -169.015000 4.886880 -176.368000 -39.081100 -0.002282 -0.040193 0.110827 -0.379587 15.812100 -40.985400 0.000008 0.000006 5.300370 3.166620 -70.919400 -11.754300 -0.000006 -0.000006 -0.010896 0.277880 -5.281970
0.000000 0.000000 0.000000 0.000000 0.000000 -0.000000 -3.784670 91.883300 -0.755949 83.097500 -3.497890 4.379350 15.735700 0.000005 -0.000001 59.247800 87.627200 -55.939800 8.984550 -0.406207 -0.000000 -3.601530 -2.753080 6.532690 16.377300 -0.000001 -0.000001 14.701900 2.544890 5.544750 6.456720 -0.000001 -0.000000 7.816540 5.072870 14.835900 12.994200 -0.242716 4.980390 -91.457300 4.035390 -70.124700 5.348090 -0.000007 -0.000001 -79.063900 -5.415490 -6.964320 24.328600 0.000019 0.000005 45.767900 -45.474700 -124.764000 22.291600 -0.000001 0.000005 49.868300 4.859610 10.174000 12.994500 -0.242716 -4.980390 87.313100 7.187490 -69.439400 -5.348130 -0.000001 -0.000004 -67.136700 2.272550 -9.165970 -24.328900 0.000322 -0.000009 20.237500 -23.739000 -137.516000 -22.291500 -0.000108 -0.000004 57.581900 5.655320 -15.547000 -2.192480 -6.469440 -0.000000 -171.039000 1.409150 -3.094600 39.081100 -0.000007 -0.000012 0.411220 -0.745833 28.871500 40.985400 -0.000006 -0.000013 -0.184142 4.497260 -77.011100 11.754300 -0.000000 0.000003 0.000624 0.156355 -10.235600 -2.192510 6.469440 -0.000001 -169.072000 4.918740 -176.360000 -39.081100 -0.002282 -0.040193 0.109980 -0.377414 15.779600 -40.985400 0.000008 0.000006 5.277130 3.114940 -70.913700 -11.754300 -0.000006 -0.000006 -0.010740 0.276754 -5.328040
0.000000 0.000000 0.000000 0.000000 0.000000 -0.000000 -3.757050 91.887400 -0.726446 83.132400 -3.424110 4.292620 15.735700 0.000005 -0.000001 59.343100 87.653500 -56.061300 8.984550 -0.406207 -0.000000 -3.644540 -2.718070 6.480270 16.377300 -0.000001 -0.000001 14.800400 2.595280 5.528140 6.456720 -0.000001 -0.000000 7.559350 5.041670 14.786900 12.994200 -0.242716 4.980390 -91.465500 4.046420 -70.072000 5.348090 -0.000007 -0.000001 -79.074600 -5.722290 -7.031190 24.328600 0.000019 0.000005 45.690400 -45.373100 -124.790000 22.291600 -0.000001 0.000005 49.773200 4.848850 10.383000 12.994500 -0.242716 -4.980390 87.316700 7.159220 -69.390900 -5.348130 -0.000001 -0.000004 -67.273400 1.726370 -9.104470 -24.328900 0.000322 -0.000009 20.276300 -23.627800 -137.330000 -22.291500 -0.000108 -0.000004 57.562800 5.651240 -15.135200 -2.192480 -6.469440 -0.000000 -171.112000 1.507480 -3.160710 39.081100 -0.000007 -0.000012 0.412275 -0.749156 28.825900 40.985400 -0.000006 -0.000013 -0.168437 4.453220 -76.989100 11.754300 -0.000000 0.000003 0.000731 0.154240 -10.321500 -2.192510 6.469440 -0.000001 -169.169000 5.149350 -176.452000 -39.081100 -0.002282 -0.040193 0.107883 -0.369188 15.812200 -40.985400 0.000008 0.000006 5.152450 3.283050 -70.920400 -11.754300 -0.000006 -0.000006 -0.010426 0.274462 -5.421850
